<?xml version="1.0" standalone="no"?>
<!DOCTYPE svg PUBLIC "-//W3C//DTD SVG 20010904//EN"
 "http://www.w3.org/TR/2001/REC-SVG-20010904/DTD/svg10.dtd">
<svg version="1.0" xmlns="http://www.w3.org/2000/svg"
 width="240.000000pt" height="240.000000pt" viewBox="0 0 240.000000 240.000000"
 preserveAspectRatio="xMidYMid meet">
<metadata>
Created by potrace 1.14, written by Peter Selinger 2001-2017
</metadata>
<g transform="translate(0.000000,240.000000) scale(0.100000,-0.100000)"
fill="#000000" stroke="none">
<path d="M1049 2196 c-2 -2 -33 -6 -69 -9 -36 -4 -76 -8 -90 -10 -14 -2 -50
-7 -80 -12 -157 -21 -334 -75 -475 -145 -138 -68 -228 -144 -300 -253 l-37
-56 228 -306 c126 -168 274 -366 329 -440 55 -73 109 -146 120 -161 32 -44
163 -218 173 -230 5 -6 27 -35 48 -65 21 -30 44 -60 51 -67 7 -8 27 -35 45
-60 18 -26 36 -51 40 -57 5 -5 20 -23 33 -40 14 -16 25 -33 25 -37 0 -3 17
-16 37 -28 45 -26 116 -24 154 5 13 10 51 56 84 101 33 46 63 83 68 84 4 0 7
6 7 14 0 8 4 16 8 18 5 1 28 30 52 63 24 33 47 62 52 63 4 2 8 9 8 16 0 6 8
19 18 27 9 9 24 26 32 38 14 21 54 76 132 180 18 23 39 49 46 56 6 8 12 18 12
23 0 6 3 12 8 14 4 2 36 43 72 92 36 48 73 97 83 107 9 11 17 21 17 24 0 8 72
100 81 103 5 2 9 8 9 14 0 5 6 15 13 22 6 8 19 24 27 36 14 21 87 117 113 150
7 8 19 26 28 40 9 14 26 36 38 49 11 13 21 27 21 30 0 3 10 18 23 31 12 14 32
40 45 58 l23 33 -46 68 c-71 108 -164 182 -318 255 -139 65 -343 122 -507 141
-30 4 -71 9 -90 12 -42 5 -386 14 -391 9z m181 -43 c0 10 161 -49 246 -90 93
-43 209 -111 279 -161 153 -110 315 -258 315 -288 0 -33 -83 -194 -201 -390
-62 -104 -115 -191 -118 -194 -3 -3 -11 -14 -18 -25 -7 -11 -24 -40 -39 -65
-52 -86 -179 -275 -186 -278 -5 -2 -8 -8 -8 -12 0 -9 -59 -101 -70 -110 -4 -3
-13 -17 -21 -32 -8 -15 -49 -79 -92 -143 -77 -113 -110 -146 -128 -128 -5 5 0
9 13 10 12 1 27 8 34 15 6 7 43 85 80 173 89 209 226 480 311 613 18 29 33 55
33 57 0 5 103 164 123 190 4 5 33 46 64 90 31 44 60 82 63 85 3 3 26 33 52 68
38 48 44 62 30 63 -9 0 -24 2 -32 4 -15 2 -120 13 -195 19 -56 5 -156 16 -180
21 -11 2 -41 4 -66 4 -45 1 -48 3 -67 44 -186 392 -232 474 -255 460 -6 -3 -7
-1 -3 6 6 9 11 9 22 0 8 -6 14 -9 14 -6z m-173 -245 c-89 -181 -127 -249 -142
-252 -11 -3 -50 -8 -87 -11 -37 -3 -77 -8 -90 -10 -13 -2 -50 -6 -83 -9 -33
-3 -87 -8 -120 -12 -86 -10 -108 -12 -128 -13 -15 -1 -13 -8 15 -43 18 -24 36
-45 39 -48 14 -13 191 -264 201 -285 6 -14 14 -25 18 -25 4 0 10 -8 14 -17 3
-10 24 -45 46 -78 22 -33 43 -67 47 -75 4 -8 29 -53 56 -100 76 -132 212 -414
282 -587 9 -21 22 -51 30 -66 22 -42 -1 -22 -26 23 -13 22 -26 40 -31 40 -4 0
-8 5 -8 10 0 8 -132 209 -167 255 -5 6 -14 22 -21 36 -8 14 -23 38 -35 52 -12
15 -49 70 -82 122 -33 52 -71 113 -85 135 -14 21 -45 72 -70 112 -24 40 -48
75 -52 76 -5 2 -8 7 -8 12 0 4 -33 64 -74 132 -65 110 -118 204 -121 218 -1 3
-11 27 -23 53 -12 27 -22 55 -22 63 0 29 184 194 330 296 95 66 239 144 351
189 50 20 162 57 166 55 0 -1 -54 -112 -120 -248z"/>
</g>
</svg>
