<svg version="1.2" xmlns="http://www.w3.org/2000/svg" width="800" height="800"><style>.s0{fill:#ffb900}</style><g id="&lt;Group&gt;"><path id="&lt;Path&gt;" class="s0" d="M579.3 50.1c-18.5 22.5-34.1 47.8-55.5 67.6-34.5 31.9-91 55.9-131.6 20.9-17.2-14.9-32.5-38.9-31.7-64.4.4-11.7.8-26.6 6.3-36.9 13.7-25.4 36.9-28.3 56.5-16 17 10.7 36.1 31.8 29.7 56.9-9.3 36.9-44.1 26.8-53.4 6.6 4-.2 8.2-1.9 11.9-5.1 8.2-7.1 10.8-18.9 5.6-26.4-5.2-7.4-16.1-7.7-24.4-.6-1.9 1.7-3.6 3.7-4.9 5.8-9.7 11.5-17.1 29-6.3 43.2 15.5 20.3 36.8 24.3 57.9 11.1 16-10 37.3-27.5 35-51.2-6-60.9-72.2-80.9-111.2-40.7-45.5 46.9-19.4 124.4 35.1 144.7 56.9 21.1 117.9-20.2 156.3-63.4 10.4-11.8 22.1-27.1 32.8-37.5 22.1-21.4 44.6-35.9 73.1-39.6 39.6-5.2 85.6 11.3 116.9 36.5 14.3 11.4 31.4 11.4 5.7-10.7-30.8-26.5-91.4-48.5-120.9-44.7-40.6 5.4-63 19.9-82.9 43.9z"/><path class="s0" d="M610.7 83.3c-15.1 23.3-23.7 51.5-25.4 81-3.1 56.6 36.8 124.6 89.9 132.7 46.2 7.1 94.7-24.6 115-70.7 21.4-48.7-19.7-114.4-65.9-120.4-51.3-6.6-75.4 42.7-62.4 82.6 4 12.5 14.3 21.4 24 28.1 10.5 8.2 23.9 7 29.8-2.4 6-9.6 2.2-23.9-8.3-32-8.7-6.7-19.2-7.1-25.9-1.7-3.4-6.9-5.4-14.6-5.6-23.5-.6-33.5 36.9-41.5 58.2-29.8 29.3 16 46.7 58.2 42.5 92.8-6.5 52.6-66.2 74.2-105.3 56.6-30.9-13.9-53.5-47.4-63.8-81.7-10.2-33.8.3-72 16.3-102.2 7.4-13.9 32.5-30.8 52.5-32.7 32.5-3.2 78.5 6 101.7 21.1 11.5 7.4 13.1-.7 1.7-9.5C748.3 47.4 697.2 33 676.3 37c-32.7 6.3-48.3 19.6-65.6 46.3zM312.1 28.4H7.2c-20.7 0 13.9-21.8 23.9-21.8H336c20.7 0-13.9 21.8-23.9 21.8zM800 289.7V794c0 8.4-22 7.9-22-.9V288.7c0-8.4 22-7.8 22 1zM484 6.6c-20.7 0 4.4 21.8 14.4 21.8h65.2c10 0 44.7-21.8 24-21.8H484zM2.2 64.2H240.3c10.1 0 20.2-.2 30.3.4 21.8 1.2 32.8 20.7 40.9 40.2 1.6 3.8 18.8-3.4 17.9-5.3-13.5-32.8-31.7-42-63.3-42h-252c-3 0-20.1 6.7-11.9 6.7zM756.4 794.8V411.7c0-35.8.4-74.8-30.4-97.6-2-1.5-9.2 2.7-8.5 3.2 31.7 23.5 29.9 63.8 29.9 100.3v379.9c0 1.1 9-.2 9-2.7z"/></g></svg>